<svg width="40" height="40" viewBox="0 0 40 40" fill="none" xmlns="http://www.w3.org/2000/svg">
<g clip-path="url(#clip0_3_570)">
<path d="M37.6562 25.9841V3.51562C37.6562 1.57711 36.0791 0 34.1406 0H8.28125C6.34273 0 4.76562 1.57711 4.76562 3.51562V4.76562H3.51562C1.57711 4.76562 0 6.34273 0 8.28125C0 10.2198 1.57711 11.7969 3.51562 11.7969H4.76562V16.4844H3.51562C1.57711 16.4844 0 18.0615 0 20C0 21.9385 1.57711 23.5156 3.51562 23.5156H4.76562V28.2031H3.51562C1.57711 28.2031 0 29.7802 0 31.7188C0 33.6573 1.57711 35.2344 3.51562 35.2344H4.76562V36.4062C4.76562 37.3402 5.12477 38.2302 5.77688 38.9124C6.44734 39.6138 7.3368 40 8.28125 40H31.7969C36.3201 40 40 36.2851 40 31.7188C40 29.4888 39.1052 27.4642 37.6562 25.9841ZM3.51562 9.45312C2.86945 9.45312 2.34375 8.92742 2.34375 8.28125C2.34375 7.63508 2.86945 7.10938 3.51562 7.10938H5.9375C6.58367 7.10938 7.10938 7.63508 7.10938 8.28125C7.10938 8.92742 6.58367 9.45312 5.9375 9.45312H3.51562ZM3.51562 21.1719C2.86945 21.1719 2.34375 20.6462 2.34375 20C2.34375 19.3538 2.86945 18.8281 3.51562 18.8281H5.9375C6.58367 18.8281 7.10938 19.3538 7.10938 20C7.10938 20.6462 6.58367 21.1719 5.9375 21.1719H3.51562ZM5.9375 32.8906H3.51562C2.86945 32.8906 2.34375 32.3649 2.34375 31.7188C2.34375 31.0726 2.86945 30.5469 3.51562 30.5469H5.9375C6.58367 30.5469 7.10938 31.0726 7.10938 31.7188C7.10938 32.3649 6.58367 32.8906 5.9375 32.8906ZM8.28125 37.6562C7.65703 37.6562 7.10938 37.0721 7.10938 36.4062V35.0328C8.47336 34.5491 9.45312 33.2465 9.45312 31.7188C9.45312 30.191 8.47336 28.8884 7.10938 28.4047V23.3141C8.47336 22.8303 9.45312 21.5277 9.45312 20C9.45312 18.4723 8.47336 17.1697 7.10938 16.6859V11.5953C8.47336 11.1116 9.45312 9.80898 9.45312 8.28125C9.45312 6.75352 8.47336 5.45094 7.10938 4.96719V3.51562C7.10938 2.86945 7.63508 2.34375 8.28125 2.34375H34.1406C34.7868 2.34375 35.3125 2.86945 35.3125 3.51562V24.3082C34.2464 23.8004 33.0543 23.5156 31.7969 23.5156C27.2737 23.5156 23.5938 27.1955 23.5938 31.7188C23.5938 34.0453 24.5495 36.1505 26.0848 37.6562H8.28125ZM31.7969 37.6562C28.566 37.6562 25.9375 34.9927 25.9375 31.7188C25.9375 28.4879 28.566 25.8594 31.7969 25.8594C35.0277 25.8594 37.6562 28.4879 37.6562 31.7188C37.6562 34.9927 35.0277 37.6562 31.7969 37.6562Z" fill="white"/>
<path d="M31.7969 9.45312H24.7656C24.1184 9.45312 23.5938 9.97781 23.5938 10.625C23.5938 11.2722 24.1184 11.7969 24.7656 11.7969H31.7969C32.4441 11.7969 32.9688 11.2722 32.9688 10.625C32.9688 9.97781 32.4441 9.45312 31.7969 9.45312Z" fill="white"/>
<path d="M31.7969 18.8281H24.7656C24.1184 18.8281 23.5938 19.3528 23.5938 20C23.5938 20.6472 24.1184 21.1719 24.7656 21.1719H31.7969C32.4441 21.1719 32.9688 20.6472 32.9688 20C32.9688 19.3528 32.4441 18.8281 31.7969 18.8281Z" fill="white"/>
<path d="M34.1406 30.5469H32.9688V29.375C32.9688 28.7278 32.4441 28.2031 31.7969 28.2031C31.1497 28.2031 30.625 28.7278 30.625 29.375V31.7188C30.625 32.3659 31.1497 32.8906 31.7969 32.8906H34.1406C34.7878 32.8906 35.3125 32.3659 35.3125 31.7188C35.3125 31.0716 34.7878 30.5469 34.1406 30.5469Z" fill="white"/>
<path d="M20.8286 7.45261C20.371 6.99495 19.629 6.99495 19.1714 7.45269L15.3125 11.3115L13.4679 9.4669C13.0103 9.00925 12.2683 9.00925 11.8106 9.4669C11.353 9.92456 11.353 10.6665 11.8106 11.1242L14.4839 13.7975C14.7127 14.0263 15.0126 14.1407 15.3125 14.1407C15.6124 14.1407 15.9123 14.0263 16.1411 13.7974L20.8286 9.10987C21.2862 8.65222 21.2862 7.91026 20.8286 7.45261Z" fill="white"/>
<path d="M20.8286 16.8276C20.371 16.37 19.629 16.37 19.1714 16.8277L15.3125 20.6865L13.4679 18.8419C13.0103 18.3842 12.2683 18.3842 11.8106 18.8419C11.353 19.2996 11.353 20.0415 11.8106 20.4992L14.4839 23.1725C14.7127 23.4013 15.0126 23.5157 15.3125 23.5157C15.6124 23.5157 15.9123 23.4013 16.1411 23.1724L20.8286 18.4849C21.2862 18.0272 21.2862 17.2853 20.8286 16.8276Z" fill="white"/>
<path d="M20.8286 26.2026C20.371 25.745 19.629 25.745 19.1714 26.2027L15.3125 30.0615L13.4679 28.2169C13.0103 27.7592 12.2683 27.7592 11.8106 28.2169C11.353 28.6746 11.353 29.4165 11.8106 29.8742L14.4839 32.5475C14.7127 32.7763 15.0126 32.8907 15.3125 32.8907C15.6124 32.8907 15.9123 32.7763 16.1411 32.5474L20.8286 27.8599C21.2862 27.4022 21.2862 26.6603 20.8286 26.2026Z" fill="white"/>
</g>
<defs>
<clipPath id="clip0_3_570">
<rect width="40" height="40" fill="white"/>
</clipPath>
</defs>
</svg>
