<svg width="40" height="40" viewBox="0 0 40 40" fill="none" xmlns="http://www.w3.org/2000/svg">
<g clip-path="url(#clip0_3_610)">
<path d="M22.9785 0H19.3652C12.6074 0 7.10938 5.53284 7.10938 12.334C7.10938 14.2032 7.90436 15.8893 9.17236 17.0752C6.58295 18.1915 4.76562 20.769 4.76562 23.7631C4.76562 26.2 5.97473 28.4619 8.00079 29.8154L11.7969 32.4149V40H30.5469V32.1457C33.5995 27.4393 35.2344 21.8747 35.2344 16.2369V12.334C35.2344 5.53284 29.7363 0 22.9785 0V0ZM14.1406 37.6562V32.9688H19.4586C19.0585 33.6588 18.8281 34.4589 18.8281 35.3125C18.8281 36.1661 19.0585 36.9662 19.4586 37.6562H14.1406ZM28.2031 37.6562C27.6645 37.6562 24.021 37.6562 23.5156 37.6562C22.2232 37.6562 21.1719 36.6049 21.1719 35.3125C21.1719 34.0201 22.2232 32.9688 23.5156 32.9688H28.2031V37.6562ZM32.8906 16.2369C32.8906 21.2988 31.4191 26.3824 28.7378 30.625C27.9495 30.625 14.1376 30.625 13.3316 30.625C13.3121 30.6116 9.32587 27.8821 9.30695 27.869C7.93091 26.9516 7.10938 25.4169 7.10938 23.7631C7.10938 21.0419 9.32312 18.8281 12.0441 18.8281H16.4844C17.7768 18.8281 18.8281 19.8795 18.8281 21.1719C18.8281 22.4643 17.7768 23.5156 16.4844 23.5156H11.7969V25.8594H16.4844C19.0692 25.8594 21.1719 23.7567 21.1719 21.1719H22.3438C26.8671 21.1719 30.5469 17.4921 30.5469 12.9688V11.875H28.2031V12.9688C28.2031 16.1996 25.5746 18.8281 22.3438 18.8281H20.5414C19.7293 17.4286 18.2156 16.4844 16.4844 16.4844H13.6035C11.315 16.4844 9.45312 14.6225 9.45312 12.334C9.45312 6.82526 13.8995 2.34375 19.3652 2.34375H22.9785C28.4442 2.34375 32.8906 6.82526 32.8906 12.334V16.2369Z" fill="white"/>
</g>
<defs>
<clipPath id="clip0_3_610">
<rect width="40" height="40" fill="white"/>
</clipPath>
</defs>
</svg>
