<svg width="22" height="22" viewBox="0 0 22 22" fill="none" xmlns="http://www.w3.org/2000/svg">
<path d="M18.8229 3.21081C16.7847 1.12973 13.9673 0 11.0899 0C4.97548 0 0.0599455 4.93513 0.119891 10.9405C0.119891 12.8432 0.6594 14.6865 1.55858 16.3514L0 22L5.81471 20.5135C7.43324 21.4054 9.23161 21.8216 11.03 21.8216C17.0845 21.8216 22 16.8865 22 10.8811C22 7.96757 20.861 5.23243 18.8229 3.21081ZM11.0899 19.9784C9.47139 19.9784 7.85286 19.5622 6.47411 18.7297L6.11444 18.5514L2.6376 19.4432L3.53678 16.0541L3.297 15.6973C0.6594 11.4757 1.91826 5.88649 6.23433 3.27027C10.5504 0.654054 16.1253 1.9027 18.7629 6.18378C21.4005 10.4649 20.1417 15.9946 15.8256 18.6108C14.4469 19.5027 12.7684 19.9784 11.0899 19.9784ZM16.3651 13.3784L15.7057 13.0811C15.7057 13.0811 14.7466 12.6649 14.1471 12.3676C14.0872 12.3676 14.0272 12.3081 13.9673 12.3081C13.7875 12.3081 13.6676 12.3676 13.5477 12.427C13.5477 12.427 13.4877 12.4865 12.6485 13.4378C12.5886 13.5568 12.4687 13.6162 12.3488 13.6162H12.2888C12.2289 13.6162 12.109 13.5568 12.049 13.4973L11.7493 13.3784C11.0899 13.0811 10.4905 12.7243 10.0109 12.2486C9.89101 12.1297 9.71117 12.0108 9.59128 11.8919C9.17166 11.4757 8.75204 11 8.45232 10.4649L8.39237 10.3459C8.33242 10.2865 8.33242 10.227 8.27248 10.1081C8.27248 9.98919 8.27248 9.87027 8.33242 9.81081C8.33242 9.81081 8.57221 9.51351 8.75204 9.33514C8.87193 9.21622 8.93188 9.03784 9.05177 8.91892C9.17166 8.74054 9.23161 8.5027 9.17166 8.32432C9.11172 8.02703 8.39237 6.42162 8.21253 6.06486C8.09264 5.88649 7.97275 5.82703 7.79291 5.76757H7.61308C7.49319 5.76757 7.31335 5.76757 7.13351 5.76757C7.01362 5.76757 6.89373 5.82703 6.77384 5.82703L6.7139 5.88649C6.59401 5.94595 6.47411 6.06487 6.35422 6.12432C6.23433 6.24324 6.17439 6.36216 6.0545 6.48108C5.63488 7.01622 5.39509 7.67027 5.39509 8.32432C5.39509 8.8 5.51499 9.27567 5.69482 9.69189L5.75477 9.87027C6.29428 11 7.01362 12.0108 7.97275 12.9027L8.21253 13.1405C8.39237 13.3189 8.57221 13.4378 8.6921 13.6162C9.95095 14.6865 11.3896 15.4595 13.0082 15.8757C13.188 15.9351 13.4278 15.9351 13.6076 15.9946C13.7875 15.9946 14.0272 15.9946 14.2071 15.9946C14.5068 15.9946 14.8665 15.8757 15.1063 15.7568C15.2861 15.6378 15.406 15.6378 15.5259 15.5189L15.6458 15.4C15.7657 15.2811 15.8856 15.2216 16.0054 15.1027C16.1253 14.9838 16.2452 14.8649 16.3052 14.7459C16.4251 14.5081 16.485 14.2108 16.545 13.9135C16.545 13.7946 16.545 13.6162 16.545 13.4973C16.545 13.4973 16.485 13.4378 16.3651 13.3784Z" fill="#FF7B01"/>
</svg>
