<svg width="40" height="40" viewBox="0 0 40 40" fill="none" xmlns="http://www.w3.org/2000/svg">
<path d="M38.6048 28.5401C37.6921 27.3023 36.433 26.4078 34.9639 25.9534L33.2695 25.4291C31.8325 24.9846 30.6977 23.9248 30.156 22.5216L25.5019 10.4649C24.8175 8.69187 22.9145 7.74859 21.0862 8.25367C21.0835 8.2543 21.0942 8.25141 21.0862 8.25367C19.9159 8.58805 18.6713 8.44773 17.6106 7.85094C16.5499 7.25422 15.7885 6.27914 15.4668 5.10539L15.0611 3.62547C14.968 3.28609 14.6595 3.05078 14.3077 3.05078C11.8816 3.05078 9.54367 3.93266 7.72453 5.53398C6.01469 7.03906 4.875 9.07648 4.48821 11.3034C3.11297 11.9357 2.11508 13.1447 1.7543 14.6618C1.32844 16.4528 1.88844 18.2602 3.25235 19.4967L10.6501 26.2034H2.92532C2.49383 26.2034 2.14407 26.5531 2.14407 26.9846C2.14407 27.4161 2.49383 27.7659 2.92532 27.7659H12.3737L18.5652 33.379C19.4336 34.1662 20.3902 34.8318 21.4102 35.3664H11.8491C11.4177 35.3664 11.0679 35.7162 11.0679 36.1477C11.0679 36.5791 11.4177 36.9289 11.8491 36.9289L35.823 36.9494H35.8339C36.9448 36.9494 37.9892 36.5176 38.776 35.7328C39.5653 34.9454 40 33.8978 40 32.783C40 31.2451 39.5176 29.7779 38.6048 28.5401ZM34.502 27.4461C36.6031 28.0961 38.0877 29.8749 38.3827 32.0017H32.9459C29.6866 32.0017 26.5113 31.1071 23.7555 29.4684C26.1271 28.4411 28.3823 27.1557 30.4818 25.6318C31.148 26.2102 31.9354 26.652 32.8076 26.9219L34.502 27.4461ZM24.0442 11.0276L24.5058 12.2233L23.4383 12.7084C23.0455 12.8869 22.8717 13.35 23.0502 13.7428C23.1811 14.0309 23.4649 14.201 23.762 14.201C23.87 14.201 23.9799 14.1784 24.0847 14.1309L25.0694 13.6834L26.008 16.1152L24.8661 16.6341C24.4733 16.8126 24.2995 17.2757 24.478 17.6685C24.6089 17.9566 24.8927 18.1268 25.1898 18.1268C25.2978 18.1268 25.4077 18.1042 25.5125 18.0566L26.5717 17.5753L27.5409 20.0861L26.7902 20.4273C26.3974 20.6058 26.2237 21.0689 26.4022 21.4617C26.533 21.7498 26.8169 21.9199 27.1139 21.9199C27.222 21.9199 27.3319 21.8973 27.4366 21.8498L28.1045 21.5462L28.6982 23.0843C28.8889 23.5784 29.1359 24.0398 29.4307 24.4625C28.5704 25.0806 27.6833 25.6573 26.772 26.1907L19.8782 14.291C19.4078 13.4789 19.3234 12.5079 19.6468 11.6268C19.9673 10.7534 20.651 10.0723 21.5242 9.75375C22.572 9.46773 23.652 10.0116 24.0442 11.0276ZM8.4436 7.00891C10.1442 8.01836 11.2183 9.87398 11.2183 11.8724C11.2183 13.1916 10.751 14.4667 9.91883 15.4738L6.08477 11.2795C6.43508 9.61648 7.27727 8.1443 8.4436 7.00891ZM37.6725 34.6265C37.1808 35.117 36.5281 35.3868 35.8338 35.3868C35.8316 35.3868 35.8292 35.3868 35.827 35.3868L27.7357 35.3663C24.7275 35.3587 21.8434 34.2418 19.6146 32.2213L4.3018 18.3391C3.36641 17.4911 2.98235 16.2515 3.27446 15.0232C3.53024 13.9477 4.25281 13.0977 5.24571 12.6773L12.9922 21.1518L12.9928 21.1512C13.1355 21.3049 13.3387 21.4017 13.5649 21.4017C13.9964 21.4017 14.3462 21.052 14.3462 20.6205C14.3462 20.4194 14.2696 20.2367 14.1448 20.0983L14.1455 20.0977L10.9822 16.6371C12.133 15.3274 12.7809 13.6301 12.7809 11.8726C12.7809 9.51805 11.6133 7.31859 9.72672 5.9807C10.8966 5.21719 12.262 4.73695 13.7175 4.63422L13.96 5.51867C14.393 7.09797 15.4174 8.40992 16.8446 9.21289C17.4663 9.56266 18.131 9.7968 18.8134 9.91266C18.5509 10.2685 18.3364 10.663 18.1802 11.0886C17.6964 12.4067 17.8225 13.8595 18.5264 15.0744L25.4055 26.9489C24.3618 27.4968 23.2898 27.9898 22.1935 28.4258C21.2933 27.7543 20.4516 26.9964 19.6841 26.1567L18.8892 25.2872C18.598 24.9687 18.104 24.9466 17.7855 25.2377C17.467 25.5287 17.4448 26.0229 17.7359 26.3414L18.5308 27.2109C22.2216 31.2486 27.4757 33.5643 32.946 33.5643H38.319C38.1947 33.961 37.9754 34.3244 37.6725 34.6265Z" fill="white"/>
<path d="M7.86369 35.3662H2.39056C1.95908 35.3662 1.60931 35.716 1.60931 36.1475C1.60931 36.5789 1.95908 36.9287 2.39056 36.9287H7.86369C8.29517 36.9287 8.64494 36.5789 8.64494 36.1475C8.64494 35.716 8.29517 35.3662 7.86369 35.3662Z" fill="white"/>
<path d="M3.70656 31.5659C3.70656 31.1344 3.3568 30.7847 2.92531 30.7847H0.78125C0.349766 30.7847 0 31.1344 0 31.5659C0 31.9974 0.349766 32.3472 0.78125 32.3472H2.92531C3.3568 32.3472 3.70656 31.9974 3.70656 31.5659Z" fill="white"/>
<path d="M11.6137 32.3472C12.0452 32.3472 12.395 31.9974 12.395 31.5659C12.395 31.1344 12.0452 30.7847 11.6137 30.7847H6.6228C6.19132 30.7847 5.84155 31.1344 5.84155 31.5659C5.84155 31.9974 6.19132 32.3472 6.6228 32.3472H11.6137Z" fill="white"/>
<path d="M15.9414 24C16.3729 24 16.7227 23.6502 16.7227 23.2188C16.7227 22.7873 16.3729 22.4375 15.9414 22.4375C15.5099 22.4375 15.1602 22.7873 15.1602 23.2188C15.1602 23.6502 15.5099 24 15.9414 24Z" fill="white"/>
</svg>
