<svg width="40" height="40" viewBox="0 0 40 40" fill="none" xmlns="http://www.w3.org/2000/svg">
<g clip-path="url(#clip0_8_707)">
<path d="M36.9487 22.9623H36.0613V21.9869C36.0613 21.2714 35.8366 20.608 35.4552 20.0625C36.1552 18.3855 36.431 16.8039 36.3444 14.9917C36.224 12.4757 35.2682 10.1092 33.653 8.3282C31.9946 6.49937 29.8226 5.49219 27.5372 5.49219C24.0494 5.49219 21.1941 7.65297 20.0126 8.70297C18.865 7.64297 16.0894 5.49219 12.4627 5.49219C10.1775 5.49219 8.00547 6.49937 6.34695 8.3282C4.73172 10.1093 3.77594 12.4758 3.65555 14.9919C3.56906 16.8041 3.84477 18.3858 4.54445 20.063C4.16328 20.6084 3.93875 21.2716 3.93875 21.9869V22.9623H3.05133C1.36883 22.9623 0 24.3355 0 26.0234C0 27.7113 1.36883 29.0846 3.05133 29.0846H3.93875V30.06C3.93875 31.9128 5.44109 33.4202 7.28781 33.4202C8.10016 33.4202 8.8457 33.1283 9.42617 32.6438C9.97586 33.7473 11.1125 34.5073 12.4234 34.5073C14.2702 34.5073 15.7725 33 15.7725 31.1472V30.963C17.9348 32.5048 19.5587 33.6001 19.5776 33.6128C19.7095 33.7017 19.8618 33.7462 20.0141 33.7462C20.1663 33.7462 20.3186 33.7017 20.4505 33.6129C20.4692 33.6002 22.0793 32.5147 24.2273 30.9826V31.1473C24.2273 33.0001 25.7296 34.5074 27.5763 34.5074C28.8872 34.5074 30.0239 33.7474 30.5736 32.6439C31.1541 33.1284 31.8997 33.4202 32.712 33.4202C34.5587 33.4202 36.061 31.9129 36.061 30.0601V29.0847H36.9484C38.6309 29.0847 39.9998 27.7115 39.9998 26.0235C40 24.3355 38.6312 22.9623 36.9487 22.9623ZM5.21633 15.0665C5.42766 10.6488 8.67836 7.05477 12.4627 7.05477C16.4581 7.05477 19.3877 10.2802 19.4159 10.3118C19.5612 10.4755 19.7691 10.5704 19.988 10.5739C20.2081 10.5784 20.4177 10.4884 20.5682 10.3295C20.5992 10.2967 23.7127 7.05477 27.5372 7.05477C31.3215 7.05477 34.5723 10.6488 34.7836 15.0665C34.8502 16.4602 34.6685 17.6983 34.2016 18.9786C33.7526 18.7539 33.247 18.6268 32.7122 18.6268C31.8998 18.6268 31.1543 18.9187 30.5738 19.4031C30.0241 18.2996 28.8875 17.5396 27.5766 17.5396C25.7298 17.5396 24.2275 19.047 24.2275 20.8998V22.9623H15.7726V20.8998C15.7726 19.047 14.2702 17.5396 12.4235 17.5396C11.1127 17.5396 9.97594 18.2996 9.42625 19.4031C8.8457 18.9187 8.10016 18.6268 7.28789 18.6268C6.75289 18.6268 6.24719 18.754 5.79813 18.9787C5.33133 17.6984 5.14977 16.4602 5.21633 15.0665ZM15.7726 24.5248H24.2275V27.522H15.7726V24.5248ZM3.05133 27.5221C2.23039 27.5221 1.5625 26.8498 1.5625 26.0234C1.5625 25.1971 2.23039 24.5248 3.05133 24.5248H3.93875V27.522H3.05133V27.5221ZM7.28781 31.8577C6.30273 31.8577 5.50125 31.0512 5.50125 30.06V21.9869C5.50125 20.9956 6.30273 20.1892 7.28781 20.1892C8.27289 20.1892 9.07438 20.9956 9.07438 21.9869V30.06C9.07438 31.0512 8.27297 31.8577 7.28781 31.8577ZM14.2101 31.1471C14.2101 32.1384 13.4086 32.9448 12.4235 32.9448C11.4384 32.9448 10.637 32.1384 10.637 31.1471V20.8998C10.637 19.9086 11.4384 19.1022 12.4235 19.1022C13.4086 19.1022 14.2101 19.9086 14.2101 20.8998V31.1471ZM20.0142 32.0201C19.2794 31.518 17.6922 30.424 15.8343 29.0845H24.1924C22.3363 30.424 20.7491 31.5181 20.0142 32.0201ZM29.3631 31.1471C29.3631 32.1384 28.5616 32.9448 27.5766 32.9448C26.5915 32.9448 25.79 32.1384 25.79 31.1471V20.8998C25.79 19.9086 26.5915 19.1022 27.5766 19.1022C28.5616 19.1022 29.3631 19.9086 29.3631 20.8998V31.1471ZM34.4988 30.06C34.4988 31.0512 33.6973 31.8577 32.7122 31.8577C31.7271 31.8577 30.9256 31.0512 30.9256 30.06V21.9869C30.9256 20.9956 31.7271 20.1892 32.7122 20.1892C33.6973 20.1892 34.4988 20.9956 34.4988 21.9869V30.06ZM36.9487 27.5221H36.0613V24.5248H36.9487C37.7696 24.5248 38.4375 25.197 38.4375 26.0234C38.4375 26.8498 37.7696 27.5221 36.9487 27.5221Z" fill="white"/>
</g>
<defs>
<clipPath id="clip0_8_707">
<rect width="40" height="40" fill="white"/>
</clipPath>
</defs>
</svg>
