<svg width="40" height="40" viewBox="0 0 40 40" fill="none" xmlns="http://www.w3.org/2000/svg">
<g clip-path="url(#clip0_8_709)">
<path d="M39.9471 34.4051C39.7544 33.9157 39.2516 33.8456 38.8141 34.0102C38.2086 34.2379 35.3652 35.2706 31.3827 36.151C31.224 35.3381 30.6092 34.6572 29.8157 34.4175L26.9172 33.5441L26.7957 20.8858C26.786 19.8728 26.4789 18.895 25.9077 18.0582L22.3388 12.8301C21.9099 12.2017 21.6923 11.4371 21.7262 10.6771L21.8048 8.90806C23.4002 6.09017 23.5732 2.00505 23.5799 1.82895C23.5879 1.61676 23.5093 1.41042 23.362 1.25745C23.2147 1.10448 23.0115 1.01807 22.7992 1.01807H12.2272C11.8092 1.01807 11.4652 1.34706 11.4467 1.76465C11.3717 3.45134 11.6664 7.04504 11.7076 7.53591L11.5442 11.2118C11.4903 12.426 11.8727 13.6221 12.6209 14.5797L14.511 16.9988L13.246 21.4041C13.1269 21.8188 13.3666 22.2516 13.7813 22.3706C14.1959 22.4895 14.6288 22.2501 14.7478 21.8353L15.6998 18.5204L18.6822 22.3376C18.8342 22.5321 18.9652 22.7443 19.0732 22.9661L14.7484 33.3578L11.7566 32.2521L12.8488 28.4482C12.9679 28.0335 12.7283 27.6008 12.3135 27.4817C11.8987 27.3625 11.466 27.6022 11.347 28.0171L10.0625 32.49L9.20885 34.8002C9.03408 35.2731 9.00314 35.7777 9.10924 36.2573C5.03599 35.3907 2.05817 34.3337 1.27338 34.0424C0.810166 33.87 0.268822 33.8618 0.0545972 34.4051C-0.103611 34.8066 0.0935046 35.2602 0.495001 35.4185C11.2036 39.6383 23.1418 39.9984 34.204 37.0893C35.9916 36.6192 37.7849 36.097 39.5066 35.4185C39.9015 35.2627 40.1031 34.8009 39.9471 34.4051ZM20.9726 37.4707C20.3624 37.4844 19.752 37.4852 19.1416 37.473C19.1066 36.5926 18.6489 35.7621 17.8972 35.2513L16.1475 34.0625L19.6371 25.6777L21.1828 36.9559C21.2001 37.1319 21.2387 37.3013 21.2955 37.4619C21.188 37.4651 21.0803 37.468 20.9726 37.4707ZM29.8174 36.336C29.8337 36.3797 29.8453 36.4243 29.8527 36.4691C27.9889 36.8325 23.4967 37.3442 23.3577 37.3541C23.0441 37.3629 22.7692 37.121 22.7379 36.8029L22.624 35.6449L23.6676 35.431L26.1056 34.9315L29.3644 35.9133C29.5723 35.9763 29.742 36.1352 29.8174 36.336ZM21.956 2.58061C21.8363 3.77994 21.5013 6.07415 20.6076 7.83569L13.2189 6.83066C13.1437 5.85305 13.0091 3.93112 12.9976 2.58053H21.956V2.58061ZM13.1052 11.2811L13.2329 8.40961L20.2206 9.36003L20.1651 10.6076C20.1164 11.7031 20.43 12.8052 21.0483 13.711L24.6171 18.9391C25.0135 19.5198 25.2265 20.198 25.2332 20.9008L25.354 33.4905L22.4324 34.0892L20.9426 23.7863C20.8161 22.9122 20.4572 22.0713 19.9133 21.3753L13.8522 13.6177C13.333 12.9533 13.0679 12.1235 13.1052 11.2811ZM10.7486 36.2139C10.595 35.9478 10.568 35.6299 10.6745 35.3417L11.2675 33.7372L14.8212 35.0505L17.0191 36.5438C17.3235 36.7506 17.5217 37.0697 17.5707 37.4139C17.1574 37.3912 16.7443 37.3634 16.3317 37.3305C14.6029 37.1914 12.9379 36.9662 11.3831 36.6965C11.1161 36.6266 10.8878 36.4549 10.7486 36.2139Z" fill="white"/>
<path d="M28.4144 21.0889C28.3955 21.52 28.7297 21.8848 29.1608 21.9036C29.1723 21.9042 29.184 21.9044 29.1955 21.9044C29.6113 21.9044 29.957 21.5768 29.9754 21.1573C30.0767 18.8456 29.1424 17.1793 29.1026 17.1094C28.8894 16.7357 28.415 16.6063 28.0404 16.8178C27.6658 17.0295 27.5337 17.5055 27.7438 17.8809C27.7514 17.8944 28.4952 19.2463 28.4144 21.0889Z" fill="white"/>
<path d="M10.4022 16.1069C10.566 16.1068 10.7312 16.0555 10.872 15.9493C11.2165 15.6896 11.2852 15.1996 11.0255 14.8551C9.84543 13.29 10.1101 11.1926 10.1141 11.1627C10.1733 10.7363 9.87644 10.3422 9.44995 10.2817C9.02251 10.2215 8.62734 10.5183 8.56672 10.9455C8.55086 11.057 8.19757 13.6998 9.77785 15.7958C9.93129 15.9996 10.1653 16.1069 10.4022 16.1069Z" fill="white"/>
<path d="M12.3639 25.0929C12.5278 25.4858 12.99 25.6787 13.3843 25.5155C13.7771 25.3529 13.97 24.888 13.8069 24.4952C13.6436 24.1019 13.18 23.9101 12.7866 24.0725C12.3935 24.2348 12.2004 24.7001 12.3639 25.0929Z" fill="white"/>
</g>
<defs>
<clipPath id="clip0_8_709">
<rect width="40" height="40" fill="white"/>
</clipPath>
</defs>
</svg>
