<svg width="40" height="40" viewBox="0 0 40 40" fill="none" xmlns="http://www.w3.org/2000/svg">
<g clip-path="url(#clip0_8_716)">
<mask id="path-1-outside-1_8_716" maskUnits="userSpaceOnUse" x="-0.931335" y="10.9136" width="42" height="23" fill="black">
<rect fill="white" x="-0.931335" y="10.9136" width="42" height="23"/>
<path d="M4.74936 32.4266C5.11537 32.7953 5.61389 33.0018 6.13336 32.9999C6.65107 33.0004 7.14755 32.7943 7.5127 32.4273L10.1334 29.8066C13.0554 28.8859 15.7047 26.3886 17.3334 24.8279C17.8552 24.6055 18.3346 24.2942 18.75 23.9079C19.2581 23.4437 19.6901 22.9024 20.03 22.3039C20.3705 22.9022 20.8026 23.4435 21.3107 23.9079C21.7262 24.2945 22.2058 24.6058 22.728 24.8279C24.3587 26.3886 27.008 28.8859 29.928 29.8066L32.5487 32.4273C33.313 33.1899 34.5504 33.1899 35.3147 32.4273L39.4254 28.3173C40.1865 27.5526 40.1865 26.3166 39.4254 25.5519L36.9167 23.0439C37.05 21.6559 37.3167 16.4113 34.05 13.1419C33.066 12.1579 32.1474 11.7633 31.31 11.9646C30.683 12.1465 30.1647 12.5896 29.8874 13.1806C28.5516 12.1224 26.7438 11.8803 25.1767 12.5499C23.9455 13.0649 22.8335 13.8279 21.91 14.7913C21.1408 15.532 20.505 16.3998 20.0307 17.3566C19.5571 16.3994 18.9213 15.5314 18.1514 14.7913C17.2281 13.8275 16.1161 13.0645 14.8847 12.5499C13.3176 11.8797 11.5093 12.1215 10.1734 13.1799C9.89593 12.5894 9.37792 12.1467 8.75136 11.9646C7.9187 11.7646 6.99603 12.1579 6.01136 13.1419C2.7447 16.4086 3.01136 21.6559 3.1447 23.0439L0.640029 25.5519C-0.12179 26.3163 -0.12179 27.5529 0.640029 28.3173L4.74936 32.4266ZM31.628 13.2606C31.9674 13.1779 32.5054 13.4786 33.1107 14.0846C36.0067 16.9806 35.6894 21.9313 35.5847 22.9853L32.8954 25.6753C32.7221 25.8427 32.6526 26.0905 32.7136 26.3236C32.7746 26.5567 32.9566 26.7387 33.1897 26.7997C33.4228 26.8608 33.6707 26.7913 33.838 26.6179L36.2234 24.2319L37.1034 25.1119L34.8307 27.3846C34.6574 27.552 34.5879 27.7999 34.6489 28.033C34.7099 28.266 34.8919 28.4481 35.125 28.5091C35.3581 28.5701 35.606 28.5006 35.7734 28.3273L38.046 26.0546L38.486 26.4946C38.7288 26.7377 38.7288 27.1315 38.486 27.3746L34.376 31.4846C34.1329 31.7274 33.7391 31.7274 33.496 31.4846L31.234 29.2219L32.0154 28.4399C32.268 28.1784 32.2644 27.7626 32.0072 27.5054C31.7501 27.2482 31.3343 27.2446 31.0727 27.4973L30.1094 28.4613C28.2753 27.7114 26.5971 26.6262 25.1607 25.2613C26.7535 25.1867 28.2896 24.6474 29.5794 23.7099C31.8247 22.0846 33.7127 18.9066 31.646 15.2999C31.4235 14.9113 31.1717 14.5403 30.8927 14.1899C31.1034 13.6666 31.3627 13.3246 31.628 13.2606ZM21.1294 18.1519C21.5516 17.2362 22.1441 16.409 22.8754 15.7146C23.6646 14.8946 24.6107 14.2417 25.6574 13.7946C26.1186 13.6086 26.6101 13.5092 27.1074 13.5013C28.4274 13.5013 29.542 14.3173 30.4867 15.9679C32.114 18.8039 30.6807 21.2713 28.798 22.6346C26.8587 24.0386 23.9807 24.5753 22.2247 22.9366C20.7287 21.5333 20.36 19.9279 21.1294 18.1519ZM12.9607 13.5013C13.458 13.5091 13.9495 13.6085 14.4107 13.7946C15.4772 14.2522 16.4397 14.9215 17.24 15.7619C17.954 16.4426 18.5306 17.2539 18.9387 18.1519C19.7087 19.9279 19.3387 21.5359 17.844 22.9333C16.09 24.5706 13.214 24.0379 11.2707 22.6313C9.38803 21.2679 7.95536 18.8006 9.58136 15.9646C10.5267 14.3166 11.6414 13.5013 12.9607 13.5013ZM6.9607 14.0846C7.5667 13.4786 8.10536 13.1746 8.4427 13.2606C8.70936 13.3273 8.96736 13.6653 9.1807 14.1939C8.90128 14.5439 8.64942 14.915 8.42736 15.3039C6.3607 18.9106 8.24603 22.0886 10.494 23.7139C11.7839 24.6518 13.3203 25.1912 14.9134 25.2653C13.4768 26.6303 11.7984 27.7155 9.96403 28.4653L9.0007 27.5013C8.83302 27.3321 8.5878 27.2651 8.35741 27.3257C8.12702 27.3863 7.94646 27.5652 7.88374 27.7951C7.82103 28.0249 7.88569 28.2707 8.05336 28.4399L8.8347 29.2219L6.57203 31.4846C6.45584 31.6012 6.29797 31.6667 6.13336 31.6666C5.96874 31.6668 5.81084 31.6013 5.6947 31.4846L1.5827 27.3746C1.34174 27.1308 1.34174 26.7385 1.5827 26.4946L2.0227 26.0546L4.2947 28.3273C4.46208 28.5006 4.70995 28.5701 4.94303 28.5091C5.17612 28.4481 5.35815 28.266 5.41916 28.033C5.48017 27.7999 5.41067 27.552 5.23736 27.3846L2.96536 25.1119L3.84536 24.2319L6.2307 26.6179C6.39808 26.7913 6.64595 26.8608 6.87903 26.7997C7.11212 26.7387 7.29415 26.5567 7.35516 26.3236C7.41617 26.0905 7.34667 25.8427 7.17336 25.6753L4.48336 22.9853C4.37736 21.9333 4.05403 16.9893 6.9587 14.0846H6.9607Z"/>
</mask>
<path d="M4.74936 32.4266C5.11537 32.7953 5.61389 33.0018 6.13336 32.9999C6.65107 33.0004 7.14755 32.7943 7.5127 32.4273L10.1334 29.8066C13.0554 28.8859 15.7047 26.3886 17.3334 24.8279C17.8552 24.6055 18.3346 24.2942 18.75 23.9079C19.2581 23.4437 19.6901 22.9024 20.03 22.3039C20.3705 22.9022 20.8026 23.4435 21.3107 23.9079C21.7262 24.2945 22.2058 24.6058 22.728 24.8279C24.3587 26.3886 27.008 28.8859 29.928 29.8066L32.5487 32.4273C33.313 33.1899 34.5504 33.1899 35.3147 32.4273L39.4254 28.3173C40.1865 27.5526 40.1865 26.3166 39.4254 25.5519L36.9167 23.0439C37.05 21.6559 37.3167 16.4113 34.05 13.1419C33.066 12.1579 32.1474 11.7633 31.31 11.9646C30.683 12.1465 30.1647 12.5896 29.8874 13.1806C28.5516 12.1224 26.7438 11.8803 25.1767 12.5499C23.9455 13.0649 22.8335 13.8279 21.91 14.7913C21.1408 15.532 20.505 16.3998 20.0307 17.3566C19.5571 16.3994 18.9213 15.5314 18.1514 14.7913C17.2281 13.8275 16.1161 13.0645 14.8847 12.5499C13.3176 11.8797 11.5093 12.1215 10.1734 13.1799C9.89593 12.5894 9.37792 12.1467 8.75136 11.9646C7.9187 11.7646 6.99603 12.1579 6.01136 13.1419C2.7447 16.4086 3.01136 21.6559 3.1447 23.0439L0.640029 25.5519C-0.12179 26.3163 -0.12179 27.5529 0.640029 28.3173L4.74936 32.4266ZM31.628 13.2606C31.9674 13.1779 32.5054 13.4786 33.1107 14.0846C36.0067 16.9806 35.6894 21.9313 35.5847 22.9853L32.8954 25.6753C32.7221 25.8427 32.6526 26.0905 32.7136 26.3236C32.7746 26.5567 32.9566 26.7387 33.1897 26.7997C33.4228 26.8608 33.6707 26.7913 33.838 26.6179L36.2234 24.2319L37.1034 25.1119L34.8307 27.3846C34.6574 27.552 34.5879 27.7999 34.6489 28.033C34.7099 28.266 34.8919 28.4481 35.125 28.5091C35.3581 28.5701 35.606 28.5006 35.7734 28.3273L38.046 26.0546L38.486 26.4946C38.7288 26.7377 38.7288 27.1315 38.486 27.3746L34.376 31.4846C34.1329 31.7274 33.7391 31.7274 33.496 31.4846L31.234 29.2219L32.0154 28.4399C32.268 28.1784 32.2644 27.7626 32.0072 27.5054C31.7501 27.2482 31.3343 27.2446 31.0727 27.4973L30.1094 28.4613C28.2753 27.7114 26.5971 26.6262 25.1607 25.2613C26.7535 25.1867 28.2896 24.6474 29.5794 23.7099C31.8247 22.0846 33.7127 18.9066 31.646 15.2999C31.4235 14.9113 31.1717 14.5403 30.8927 14.1899C31.1034 13.6666 31.3627 13.3246 31.628 13.2606ZM21.1294 18.1519C21.5516 17.2362 22.1441 16.409 22.8754 15.7146C23.6646 14.8946 24.6107 14.2417 25.6574 13.7946C26.1186 13.6086 26.6101 13.5092 27.1074 13.5013C28.4274 13.5013 29.542 14.3173 30.4867 15.9679C32.114 18.8039 30.6807 21.2713 28.798 22.6346C26.8587 24.0386 23.9807 24.5753 22.2247 22.9366C20.7287 21.5333 20.36 19.9279 21.1294 18.1519ZM12.9607 13.5013C13.458 13.5091 13.9495 13.6085 14.4107 13.7946C15.4772 14.2522 16.4397 14.9215 17.24 15.7619C17.954 16.4426 18.5306 17.2539 18.9387 18.1519C19.7087 19.9279 19.3387 21.5359 17.844 22.9333C16.09 24.5706 13.214 24.0379 11.2707 22.6313C9.38803 21.2679 7.95536 18.8006 9.58136 15.9646C10.5267 14.3166 11.6414 13.5013 12.9607 13.5013ZM6.9607 14.0846C7.5667 13.4786 8.10536 13.1746 8.4427 13.2606C8.70936 13.3273 8.96736 13.6653 9.1807 14.1939C8.90128 14.5439 8.64942 14.915 8.42736 15.3039C6.3607 18.9106 8.24603 22.0886 10.494 23.7139C11.7839 24.6518 13.3203 25.1912 14.9134 25.2653C13.4768 26.6303 11.7984 27.7155 9.96403 28.4653L9.0007 27.5013C8.83302 27.3321 8.5878 27.2651 8.35741 27.3257C8.12702 27.3863 7.94646 27.5652 7.88374 27.7951C7.82103 28.0249 7.88569 28.2707 8.05336 28.4399L8.8347 29.2219L6.57203 31.4846C6.45584 31.6012 6.29797 31.6667 6.13336 31.6666C5.96874 31.6668 5.81084 31.6013 5.6947 31.4846L1.5827 27.3746C1.34174 27.1308 1.34174 26.7385 1.5827 26.4946L2.0227 26.0546L4.2947 28.3273C4.46208 28.5006 4.70995 28.5701 4.94303 28.5091C5.17612 28.4481 5.35815 28.266 5.41916 28.033C5.48017 27.7999 5.41067 27.552 5.23736 27.3846L2.96536 25.1119L3.84536 24.2319L6.2307 26.6179C6.39808 26.7913 6.64595 26.8608 6.87903 26.7997C7.11212 26.7387 7.29415 26.5567 7.35516 26.3236C7.41617 26.0905 7.34667 25.8427 7.17336 25.6753L4.48336 22.9853C4.37736 21.9333 4.05403 16.9893 6.9587 14.0846H6.9607Z" fill="white"/>
<path d="M4.74936 32.4266C5.11537 32.7953 5.61389 33.0018 6.13336 32.9999C6.65107 33.0004 7.14755 32.7943 7.5127 32.4273L10.1334 29.8066C13.0554 28.8859 15.7047 26.3886 17.3334 24.8279C17.8552 24.6055 18.3346 24.2942 18.75 23.9079C19.2581 23.4437 19.6901 22.9024 20.03 22.3039C20.3705 22.9022 20.8026 23.4435 21.3107 23.9079C21.7262 24.2945 22.2058 24.6058 22.728 24.8279C24.3587 26.3886 27.008 28.8859 29.928 29.8066L32.5487 32.4273C33.313 33.1899 34.5504 33.1899 35.3147 32.4273L39.4254 28.3173C40.1865 27.5526 40.1865 26.3166 39.4254 25.5519L36.9167 23.0439C37.05 21.6559 37.3167 16.4113 34.05 13.1419C33.066 12.1579 32.1474 11.7633 31.31 11.9646C30.683 12.1465 30.1647 12.5896 29.8874 13.1806C28.5516 12.1224 26.7438 11.8803 25.1767 12.5499C23.9455 13.0649 22.8335 13.8279 21.91 14.7913C21.1408 15.532 20.505 16.3998 20.0307 17.3566C19.5571 16.3994 18.9213 15.5314 18.1514 14.7913C17.2281 13.8275 16.1161 13.0645 14.8847 12.5499C13.3176 11.8797 11.5093 12.1215 10.1734 13.1799C9.89593 12.5894 9.37792 12.1467 8.75136 11.9646C7.9187 11.7646 6.99603 12.1579 6.01136 13.1419C2.7447 16.4086 3.01136 21.6559 3.1447 23.0439L0.640029 25.5519C-0.12179 26.3163 -0.12179 27.5529 0.640029 28.3173L4.74936 32.4266ZM31.628 13.2606C31.9674 13.1779 32.5054 13.4786 33.1107 14.0846C36.0067 16.9806 35.6894 21.9313 35.5847 22.9853L32.8954 25.6753C32.7221 25.8427 32.6526 26.0905 32.7136 26.3236C32.7746 26.5567 32.9566 26.7387 33.1897 26.7997C33.4228 26.8608 33.6707 26.7913 33.838 26.6179L36.2234 24.2319L37.1034 25.1119L34.8307 27.3846C34.6574 27.552 34.5879 27.7999 34.6489 28.033C34.7099 28.266 34.8919 28.4481 35.125 28.5091C35.3581 28.5701 35.606 28.5006 35.7734 28.3273L38.046 26.0546L38.486 26.4946C38.7288 26.7377 38.7288 27.1315 38.486 27.3746L34.376 31.4846C34.1329 31.7274 33.7391 31.7274 33.496 31.4846L31.234 29.2219L32.0154 28.4399C32.268 28.1784 32.2644 27.7626 32.0072 27.5054C31.7501 27.2482 31.3343 27.2446 31.0727 27.4973L30.1094 28.4613C28.2753 27.7114 26.5971 26.6262 25.1607 25.2613C26.7535 25.1867 28.2896 24.6474 29.5794 23.7099C31.8247 22.0846 33.7127 18.9066 31.646 15.2999C31.4235 14.9113 31.1717 14.5403 30.8927 14.1899C31.1034 13.6666 31.3627 13.3246 31.628 13.2606ZM21.1294 18.1519C21.5516 17.2362 22.1441 16.409 22.8754 15.7146C23.6646 14.8946 24.6107 14.2417 25.6574 13.7946C26.1186 13.6086 26.6101 13.5092 27.1074 13.5013C28.4274 13.5013 29.542 14.3173 30.4867 15.9679C32.114 18.8039 30.6807 21.2713 28.798 22.6346C26.8587 24.0386 23.9807 24.5753 22.2247 22.9366C20.7287 21.5333 20.36 19.9279 21.1294 18.1519ZM12.9607 13.5013C13.458 13.5091 13.9495 13.6085 14.4107 13.7946C15.4772 14.2522 16.4397 14.9215 17.24 15.7619C17.954 16.4426 18.5306 17.2539 18.9387 18.1519C19.7087 19.9279 19.3387 21.5359 17.844 22.9333C16.09 24.5706 13.214 24.0379 11.2707 22.6313C9.38803 21.2679 7.95536 18.8006 9.58136 15.9646C10.5267 14.3166 11.6414 13.5013 12.9607 13.5013ZM6.9607 14.0846C7.5667 13.4786 8.10536 13.1746 8.4427 13.2606C8.70936 13.3273 8.96736 13.6653 9.1807 14.1939C8.90128 14.5439 8.64942 14.915 8.42736 15.3039C6.3607 18.9106 8.24603 22.0886 10.494 23.7139C11.7839 24.6518 13.3203 25.1912 14.9134 25.2653C13.4768 26.6303 11.7984 27.7155 9.96403 28.4653L9.0007 27.5013C8.83302 27.3321 8.5878 27.2651 8.35741 27.3257C8.12702 27.3863 7.94646 27.5652 7.88374 27.7951C7.82103 28.0249 7.88569 28.2707 8.05336 28.4399L8.8347 29.2219L6.57203 31.4846C6.45584 31.6012 6.29797 31.6667 6.13336 31.6666C5.96874 31.6668 5.81084 31.6013 5.6947 31.4846L1.5827 27.3746C1.34174 27.1308 1.34174 26.7385 1.5827 26.4946L2.0227 26.0546L4.2947 28.3273C4.46208 28.5006 4.70995 28.5701 4.94303 28.5091C5.17612 28.4481 5.35815 28.266 5.41916 28.033C5.48017 27.7999 5.41067 27.552 5.23736 27.3846L2.96536 25.1119L3.84536 24.2319L6.2307 26.6179C6.39808 26.7913 6.64595 26.8608 6.87903 26.7997C7.11212 26.7387 7.29415 26.5567 7.35516 26.3236C7.41617 26.0905 7.34667 25.8427 7.17336 25.6753L4.48336 22.9853C4.37736 21.9333 4.05403 16.9893 6.9587 14.0846H6.9607Z" stroke="white" stroke-width="0.2" mask="url(#path-1-outside-1_8_716)"/>
<path d="M10.9598 17.5813L10.9598 17.5813C11.303 17.7783 11.7409 17.66 11.9381 17.3168L11.9381 17.3168C12.1739 16.9057 12.3879 16.6292 12.5659 16.4562C12.6549 16.3697 12.7341 16.3099 12.8016 16.2719C12.8689 16.2341 12.9219 16.2196 12.9602 16.2193C13.1226 16.2276 13.2823 16.2651 13.4315 16.3298L13.4315 16.3298L13.4333 16.3306C13.8026 16.4736 14.2179 16.2903 14.361 15.921C14.504 15.5519 14.3209 15.1368 13.9519 14.9935C13.6387 14.8647 13.3045 14.7943 12.966 14.786L12.966 14.7859H12.9647C12.1306 14.7859 11.3903 15.3937 10.6954 16.603L10.6954 16.603C10.4983 16.9462 10.6167 17.3841 10.9598 17.5813Z" fill="white" stroke="white" stroke-width="0.1"/>
<path d="M31.0683 10.0406L31.0683 10.0405C30.5983 8.86165 30.448 7.58035 30.6314 6.32599C29.1622 7.28883 26.993 8.2868 24.7608 7.80417C22.8101 7.38301 21.2139 5.92295 20 3.47466C18.7862 5.92295 17.19 7.38168 15.2386 7.80482L15.2386 7.80482C13.0078 8.28814 10.8379 7.29015 9.36802 6.32667C9.55141 7.5808 9.40115 8.86185 8.93143 10.0405C8.84152 10.2856 8.62536 10.4625 8.36722 10.5021C8.10882 10.5417 7.84935 10.4375 7.69015 10.2302C7.53114 10.0231 7.49735 9.74598 7.60186 9.50679C8.22158 7.92766 8.13237 6.15828 7.35691 4.64948L7.35623 4.64814L7.35625 4.64813C7.20695 4.33483 7.3036 3.95958 7.58566 3.75738C7.86772 3.55518 8.25414 3.58413 8.50291 3.82612L8.50341 3.8266C8.51851 3.8417 9.34722 4.65743 10.5641 5.38361C11.7825 6.11068 13.38 6.74199 14.9368 6.40377C16.7494 6.00928 18.2291 4.34062 19.3259 1.41583L31.0683 10.0406ZM31.0683 10.0406C31.177 10.3117 31.4394 10.4898 31.7314 10.4906L31.0683 10.0406ZM31.7314 10.4906H31.7334C31.9706 10.4898 32.192 10.3716 32.3248 10.175C32.4579 9.97783 32.4845 9.72747 32.3958 9.50675C31.7762 7.9274 31.8653 6.1579 32.6405 4.64882L32.6412 4.64747C32.7905 4.33417 32.6938 3.95892 32.4118 3.75671C32.1297 3.55451 31.7433 3.58347 31.4945 3.82545L31.4944 3.82558L31.4941 3.82582C31.4719 3.84766 30.6447 4.6587 29.4325 5.38151C28.2137 6.10833 26.6155 6.73999 25.058 6.40377C23.2454 6.00863 21.7656 4.34062 20.6689 1.41583C20.5644 1.13544 20.2966 0.949512 19.9974 0.949512C19.6982 0.949512 19.4305 1.1354 19.3259 1.41574L31.7314 10.4906Z" fill="white" stroke="white" stroke-width="0.1"/>
<path d="M19.3286 38.1315L19.3286 38.1315C18.2319 35.2034 16.7521 33.5387 14.9395 33.1435L19.3286 38.1315ZM19.3286 38.1315C19.4335 38.4115 19.7012 38.5968 20.0001 38.5967L20.0001 38.5467L20 38.5967C20.299 38.5968 20.5666 38.4115 20.6715 38.1315C21.7683 35.206 23.248 33.538 25.0607 33.1435C26.6171 32.8053 28.2146 33.4368 29.4331 34.1639C30.6433 34.8861 31.4698 35.6969 31.4941 35.7207L31.4944 35.721L31.4947 35.7213C31.7761 35.9927 32.2231 35.9885 32.4993 35.7119C32.7756 35.4352 32.7791 34.9882 32.5073 34.7072L32.5073 34.7072L32.5064 34.7062L32.5037 34.7036C32.4082 34.6101 31.4495 33.6714 30.0355 32.8535C28.6079 32.0279 26.7083 31.3209 24.7615 31.7418L24.7615 31.7418C22.8101 32.1649 21.2139 33.6237 20.0001 36.0713C18.7862 33.6237 17.19 32.1649 15.2387 31.7418L15.2386 31.7418C13.2921 31.3203 11.3926 32.0262 9.96487 32.8515C8.53623 33.6774 7.57221 34.6274 7.49329 34.7067L7.49329 34.7067L7.49278 34.7072C7.22098 34.9882 7.22455 35.4352 7.5008 35.7119C7.77705 35.9885 8.22404 35.9927 8.50543 35.7213L8.50544 35.7213M19.3286 38.1315L8.50544 35.7213M8.50544 35.7213L8.50608 35.7207M8.50544 35.7213L8.50608 35.7207M8.50608 35.7207C8.52117 35.7056 9.34971 34.8905 10.5665 34.1647M8.50608 35.7207L10.5665 34.1647M10.5665 34.1647C11.7848 33.4379 13.3823 32.8066 14.9394 33.1435L10.5665 34.1647Z" fill="white" stroke="white" stroke-width="0.1"/>
</g>
<defs>
<clipPath id="clip0_8_716">
<rect width="40" height="40" fill="white"/>
</clipPath>
</defs>
</svg>
