<svg width="40" height="40" viewBox="0 0 40 40" fill="none" xmlns="http://www.w3.org/2000/svg">
<g clip-path="url(#clip0_11_725)">
<path d="M40 23.4216C40 22.3233 39.4925 21.3419 38.6993 20.6989C39.4925 20.0558 40 19.0741 40 17.9761C40 16.044 38.428 14.472 36.496 14.472H25.7999C25.665 14.472 25.5887 14.3927 25.5551 14.3451C25.5219 14.2981 25.4724 14.1995 25.5179 14.0723L28.1387 6.6983C28.5629 5.50446 28.3875 4.22638 27.6569 3.19122C26.926 2.15607 25.7803 1.5625 24.512 1.5625C22.9803 1.5625 21.5964 2.47009 20.9857 3.87482C19.9948 6.15417 18.3414 8.03009 16.2042 9.29901C14.3475 10.4019 12.7542 11.9214 11.5598 13.7177C11.5015 12.1747 10.2289 10.9375 8.67188 10.9375H0.78125C0.349731 10.9375 0 11.2872 0 11.7188V37.6562C0 38.0878 0.349731 38.4375 0.78125 38.4375H8.67188C9.97345 38.4375 11.0764 37.5726 11.4374 36.3876C13.7296 37.3245 16.2143 37.8165 18.6871 37.8165H20.8725C21.304 37.8165 21.6537 37.4664 21.6537 37.0352C21.6537 36.6037 21.304 36.254 20.8725 36.254H18.6871C16.2473 36.254 13.7946 35.7327 11.5625 34.7433V16.7258L12.5281 15.1074C13.6212 13.2758 15.1682 11.7316 17.0023 10.6427C19.4232 9.20471 21.2961 7.07977 22.4188 4.49768C22.7811 3.66364 23.6026 3.125 24.5135 3.125C25.2658 3.125 25.9464 3.47748 26.38 4.09241C26.814 4.70703 26.9183 5.466 26.6663 6.17493L24.0454 13.5489C23.8431 14.1183 23.9304 14.7528 24.2786 15.2463C24.6271 15.7401 25.1956 16.0345 25.7999 16.0345H36.496C37.5665 16.0345 38.4375 16.9055 38.4375 17.9761C38.4375 19.0469 37.5665 19.9176 36.496 19.9176H31.2018C30.7703 19.9176 30.4205 20.2676 30.4205 20.6989C30.4205 21.1304 30.7703 21.4801 31.2018 21.4801H36.496C37.5665 21.4801 38.4375 22.3511 38.4375 23.4216C38.4375 24.4925 37.5665 25.3632 36.496 25.3632H31.2018C30.7703 25.3632 30.4205 25.7132 30.4205 26.1444C30.4205 26.5759 30.7703 26.9257 31.2018 26.9257H36.496C37.5665 26.9257 38.4375 27.7966 38.4375 28.8672C38.4375 29.9377 37.5665 30.8087 36.496 30.8087H31.2018C30.7703 30.8087 30.4205 31.1584 30.4205 31.59C30.4205 32.0215 30.7703 32.3712 31.2018 32.3712H34.3304C35.401 32.3712 36.272 33.2422 36.272 34.3127C36.272 35.3833 35.401 36.2543 34.3304 36.2543H27.9041C27.4728 36.2543 27.1228 36.604 27.1228 37.0355C27.1228 37.4667 27.4728 37.8168 27.9041 37.8168H34.3304C36.2625 37.8168 37.8345 36.2448 37.8345 34.3127C37.8345 33.5648 37.5986 32.8705 37.1979 32.3007C38.7946 31.9745 40 30.5588 40 28.8669C40 27.7689 39.4922 26.7871 38.6993 26.1441C39.4922 25.5014 40 24.5197 40 23.4216ZM1.5625 12.5H8.67188C9.4043 12.5 10 13.0957 10 13.8281V31.7578C10 32.2531 9.59686 32.6562 9.10156 32.6562H2.46094C1.96564 32.6562 1.5625 32.2531 1.5625 31.7578V12.5ZM10 35.5469C10 36.2793 9.4043 36.875 8.67188 36.875H1.5625V34.0482C1.84113 34.1577 2.14386 34.2188 2.46094 34.2188H9.10156C9.41864 34.2188 9.72137 34.1577 10 34.0482V35.5469Z" fill="white"/>
<path d="M5.78125 30.6274C7.07367 30.6274 8.125 29.5758 8.125 28.2837C8.125 26.9913 7.07367 25.9399 5.78125 25.9399C4.48883 25.9399 3.4375 26.9913 3.4375 28.2837C3.4375 29.5758 4.48883 30.6274 5.78125 30.6274ZM5.78125 27.5024C6.21216 27.5024 6.5625 27.8528 6.5625 28.2837C6.5625 28.7143 6.21216 29.0649 5.78125 29.0649C5.35034 29.0649 5 28.7143 5 28.2837C5 27.8528 5.35034 27.5024 5.78125 27.5024Z" fill="white"/>
<path d="M24.3884 36.2539C24.1827 36.2539 23.9813 36.3375 23.8361 36.4828C23.6899 36.6281 23.6072 36.8298 23.6072 37.0352C23.6072 37.2405 23.6899 37.4423 23.8361 37.5875C23.9813 37.7328 24.1827 37.8164 24.3884 37.8164C24.5938 37.8164 24.7952 37.7328 24.9405 37.5875C25.0858 37.4423 25.1697 37.2405 25.1697 37.0352C25.1697 36.8298 25.0861 36.6281 24.9405 36.4828C24.7952 36.3375 24.5938 36.2539 24.3884 36.2539Z" fill="white"/>
</g>
<defs>
<clipPath id="clip0_11_725">
<rect width="40" height="40" fill="white"/>
</clipPath>
</defs>
</svg>
