<svg width="135" height="140" viewBox="0 0 135 140" fill="none" xmlns="http://www.w3.org/2000/svg">
<path fill-rule="evenodd" clip-rule="evenodd" d="M36.4241 38.741L37.7749 42.896H42.1456L38.6094 45.4641L39.9601 49.6189L36.4241 47.0511L32.8884 49.6189L34.2392 45.4641L30.7029 42.896H35.0737L36.4241 38.741ZM110.715 45.3293V25.4914C110.715 22.981 108.66 20.9273 106.149 20.9273H84.2444C83.9495 21.4567 83.6628 21.9032 83.2836 22.5287L81.9727 24.4438H106.149C106.718 24.4438 107.197 24.9222 107.197 25.4914C107.197 49.3181 107.288 73.0363 107.288 96.9249C100.726 98.4375 94.0731 99.5677 87.3619 100.321C76.9568 101.636 59.7937 101.49 51.454 100.708C43.4442 99.9836 35.5114 98.7204 27.7113 96.9201C27.7113 73.0457 27.7878 49.3139 27.7878 25.4911C27.7878 24.9219 28.2663 24.4436 28.8357 24.4436H58.0693C58.0002 23.9073 57.9615 23.3574 57.9267 22.805L57.9201 20.927H28.8357C26.3245 20.927 24.2697 22.9807 24.2697 25.4911C24.2697 49.0228 24.2697 72.5545 24.2697 96.0862C23.8391 95.9777 23.4091 95.865 22.9793 95.7528V45.329H22.958V25.1342C22.958 22.0688 25.4734 19.5545 28.5401 19.5545H58.0071L58.1254 17.8467H28.5401C24.5303 17.8467 21.2494 21.1262 21.2494 25.1342V47.4951H21.2586V80.751H0.860903C0.188963 80.751 -0.223686 81.4896 0.128094 82.0617L4.79715 89.645L0.128094 97.2275C-0.223686 97.7999 0.188963 98.5384 0.860903 98.5384H12.6631V105.13C12.6631 108.594 15.9255 110.037 18.4041 110.83C19.3532 111.102 20.3047 111.365 21.2586 111.621V115.146C21.2586 119.416 24.2452 123.843 28.2057 125.441L61.7391 138.99C63.8095 139.824 66.0148 140 67.4996 140C68.9853 140 71.19 139.824 73.2601 138.988L106.793 125.442C110.753 123.843 113.741 119.416 113.741 115.147V111.626C114.673 111.376 115.603 111.12 116.532 110.854C116.561 110.849 116.59 110.84 116.62 110.83C119.074 110.046 122.336 108.602 122.336 105.138V98.5389H134.138C134.809 98.5389 135.223 97.7993 134.871 97.228L130.201 89.6455L134.871 82.0622C135.223 81.4906 134.809 80.7515 134.138 80.7515H113.741C113.741 62.2127 113.741 43.6736 113.741 25.1347C113.741 21.1264 110.46 17.8472 106.45 17.8472H85.8805C85.7318 18.1222 85.5722 18.369 85.4251 18.6745L84.9595 19.555H106.45C109.517 19.555 112.032 22.0694 112.032 25.1347C112.032 48.6764 112.02 72.2071 112.02 95.7578C111.59 95.8697 111.16 95.9824 110.73 96.091V45.3295H110.714L110.715 45.3293ZM122.336 96.819V95.3303L126.379 95.1117L122.336 94.8933V92.5721L126.379 92.354L122.336 92.1353V90.2489C122.336 90.1017 122.32 89.9589 122.296 89.8175L126.379 89.5962L122.174 89.3687C121.862 88.5205 121.091 87.7849 119.899 87.1896L126.379 86.8391L117.653 86.3668C117.297 86.2709 116.928 86.1814 116.535 86.1016L114.961 85.7705L113.741 91.9773V84.679H115.175L115.174 84.6874L126.379 84.0811L113.741 83.397V82.4712H132.598L128.459 89.1946C128.288 89.4706 128.288 89.8201 128.459 90.0967L132.598 96.8192H122.336L122.336 96.819ZM120.616 94.7827V95.1125C119.622 96.2553 118.173 96.9409 116.775 97.4904C115.205 98.1067 113.558 98.6032 111.895 98.8937C113.693 98.8208 115.507 98.5218 117.248 98.0714C118.436 97.7195 119.595 97.341 120.616 96.722V97.458C119.621 98.6111 118.177 99.3178 116.777 99.8893C115.212 100.528 113.562 101.053 111.895 101.345C113.698 101.272 115.52 100.94 117.258 100.464C118.441 100.098 119.597 99.7052 120.616 99.077V99.8022C119.621 100.968 118.178 101.696 116.779 102.288C115.218 102.948 113.566 103.502 111.895 103.796C113.703 103.721 115.532 103.356 117.268 102.856C118.445 102.495 119.6 102.077 120.616 101.434V102.147C119.62 103.323 118.181 104.071 116.78 104.686C115.225 105.369 113.571 105.952 111.895 106.248C113.709 106.17 115.546 105.772 117.278 105.248C118.452 104.871 119.603 104.438 120.616 103.787V104.491C119.619 105.678 118.184 106.449 116.782 107.085C115.233 107.789 113.576 108.402 111.895 108.699C113.715 108.62 115.558 108.188 117.288 107.641C118.377 107.276 119.447 106.859 120.405 106.27C119.924 107.485 118.582 108.389 116.156 109.173L116.121 109.183C100.384 113.69 84.028 115.976 67.5081 115.976C50.9823 115.976 34.621 113.688 18.9031 109.185C16.3637 108.372 14.9938 107.431 14.5492 106.148C15.5574 106.805 16.7023 107.251 17.867 107.641C19.5972 108.188 21.441 108.62 23.261 108.699C21.5796 108.402 19.9226 107.789 18.373 107.085C16.8944 106.414 15.383 105.59 14.3835 104.288V103.678C15.4338 104.388 16.642 104.851 17.8768 105.248C19.6099 105.772 21.4465 106.17 23.261 106.248C21.5843 105.952 19.93 105.369 18.3745 104.686C16.8973 104.038 15.3806 103.236 14.3835 101.944V101.327C15.4365 102.028 16.6483 102.476 17.8868 102.856C19.6228 103.356 21.4518 103.721 23.2607 103.796C21.5885 103.502 19.9371 102.948 18.3764 102.288C16.8997 101.663 15.3787 100.883 14.3835 99.602V98.9722C15.4396 99.6594 16.652 100.079 17.8971 100.464C19.6352 100.94 21.4576 101.272 23.261 101.345C21.5935 101.053 19.9432 100.528 18.3788 99.8893C16.9021 99.2864 15.3787 98.5292 14.3837 97.2591V96.6191C15.4428 97.2968 16.6573 97.7 17.9073 98.0711C19.6486 98.5215 21.4623 98.8205 23.2613 98.8935C21.5977 98.6027 19.9508 98.1064 18.3809 97.4901C16.9055 96.9099 15.3777 96.176 14.384 94.9155V94.134C15.3524 95.0121 16.7089 95.748 18.4043 96.2906C34.3008 100.845 50.8221 103.155 67.5089 103.155C84.1956 103.155 100.716 100.845 116.639 96.2827C118.311 95.7449 119.655 95.014 120.616 94.1421V94.7822L120.616 94.7827ZM70.5866 130.613L67.0509 128.045L63.5149 130.613L64.8654 126.458L61.3296 123.89H65.7001L67.0509 119.735L68.4013 123.89H72.7721L69.2361 126.458L70.5869 130.613H70.5866ZM112.02 115.147C112.02 118.755 109.497 122.496 106.149 123.848L72.6159 137.395C70.8019 138.126 68.8324 138.281 67.4996 138.281C66.1671 138.281 64.1971 138.126 62.3837 137.395L28.8499 123.847C25.5032 122.496 22.9793 118.756 22.9793 115.147V112.067C23.4093 112.179 23.8383 112.294 24.2697 112.401V115.147C24.2697 118.208 26.4942 121.505 29.3335 122.651L62.8672 136.198C64.1323 136.709 65.7774 136.99 67.4999 136.99C69.2222 136.99 70.8672 136.709 72.1326 136.198L105.665 122.651C108.505 121.504 110.73 118.208 110.73 115.147V112.405C111.161 112.298 111.59 112.184 112.02 112.073V115.147L112.02 115.147ZM12.8227 89.3708L8.65909 89.5962L12.7028 89.8146C12.6794 89.9555 12.6631 90.0983 12.6631 90.2439V92.1372L8.65909 92.3537L12.6631 92.5697V94.8952L8.65909 95.1114L12.6631 95.3279V96.8187H2.40057L6.54024 90.0962C6.71046 89.8193 6.71046 89.4701 6.54024 89.194L2.40057 82.4707H21.2589V83.3986L8.65909 84.0806L19.8254 84.6848L19.8243 84.6784H21.2589V91.9768L20.0378 85.7649L18.4689 86.0947C18.0615 86.1779 17.6784 86.2704 17.3113 86.3697L8.65909 86.8385L15.0957 87.1865C13.9023 87.7831 13.1324 88.5211 12.8227 89.3705V89.3708ZM98.9825 38.741L100.333 42.896H104.704L101.167 45.4641L102.518 49.6189L98.9822 47.0511L95.4465 49.6189L96.7972 45.4641L93.261 42.896H97.6318L98.9825 38.741ZM4.07699 69.9727V69.2213H4.53575V64.5002H4.07699V63.7488H6.94419V65.5659H6.19215V64.5002H5.41533V66.388H6.04748V67.1402H5.41533V69.2213H6.19215V68.0603H6.94419V69.9727H4.07699ZM7.6301 69.9727V67.8337H8.38188V68.4071C8.38188 68.7409 8.41693 68.975 8.48544 69.1091C8.55474 69.245 8.67569 69.3124 8.8467 69.3124C8.97951 69.3124 9.08676 69.2574 9.16897 69.147C9.42931 68.7898 9.22194 68.0684 9.00191 67.7326C8.92259 67.6106 8.72259 67.3467 8.40112 66.9385C8.0691 66.5191 7.84749 66.1825 7.73787 65.9276C7.62694 65.6734 7.57265 65.3752 7.57265 65.0344C7.57265 64.6259 7.66435 64.2932 7.8467 64.0343C8.0301 63.7754 8.26515 63.6466 8.55184 63.6466C8.79084 63.6466 9.00006 63.7422 9.17978 63.9358V63.7491H9.93182V65.6073H9.17978V65.1363C9.17978 64.8427 9.1558 64.4062 8.76607 64.4062C8.2612 64.4062 8.39005 65.0989 8.51073 65.4055C8.58294 65.5917 8.70836 65.7948 8.88781 66.015L9.27516 66.4944C9.8612 67.2224 10.154 67.9164 10.154 68.5776C10.154 69.0095 10.0483 69.3669 9.83669 69.6514C9.62615 69.9343 9.36238 70.0755 9.04855 70.0755C8.79163 70.0755 8.5695 69.9764 8.38162 69.7781V69.973H7.62984L7.6301 69.9727ZM13.9266 63.7491V66.0253H13.2694V64.4062H12.7405V69.2215H13.2325V69.9727H11.369V69.2215H11.8607V64.4062H11.3318V66.0253H10.6749V63.7491H13.9266ZM15.7403 64.5002V69.2213C16.0607 69.2155 16.2847 69.0482 16.4104 68.7206C16.5369 68.3937 16.5996 67.8156 16.5996 66.9864C16.5996 66.3395 16.573 65.8383 16.5203 65.483C16.4507 65.0083 16.3139 64.5002 15.7403 64.5002ZM14.4059 69.9727V69.2215H14.8604V64.5005H14.4059V63.7493H15.5297C16.2451 63.7493 16.7632 64.004 17.0828 64.5137C17.4017 65.0228 17.5619 65.8133 17.5619 66.8842C17.5619 67.933 17.3988 68.71 17.072 69.215C16.7461 69.7202 16.2401 69.973 15.5545 69.973H14.4059V69.9727ZM118.127 69.9727V69.2542H118.499V64.7897C118.38 64.8803 118.256 64.9398 118.127 64.968V64.2113C118.471 64.0791 118.736 63.891 118.921 63.6466H119.276V69.2545H119.623V69.973H118.127L118.127 69.9727ZM122.333 66.6888V65.3226C122.333 64.9701 122.301 64.7152 122.237 64.5582C122.175 64.4012 122.071 64.3235 121.929 64.3235C121.774 64.3235 121.667 64.4212 121.608 64.6161C121.548 64.8118 121.519 65.1851 121.519 65.7358C121.519 66.1678 121.551 66.4681 121.614 66.634C121.677 66.7999 121.79 66.8842 121.953 66.8842C122.088 66.8842 122.214 66.8186 122.334 66.689L122.333 66.6888ZM120.791 68.2797H121.519C121.519 69.0259 121.648 69.3983 121.907 69.3983C122.064 69.3983 122.174 69.2927 122.237 69.0827C122.301 68.8723 122.333 68.5307 122.333 68.06V67.1897C122.14 67.3878 121.912 67.4871 121.647 67.4871C120.788 67.4871 120.681 66.3827 120.681 65.744C120.681 64.9593 120.892 63.6463 121.915 63.6463C122.353 63.6463 122.672 63.8455 122.872 64.2442C123.072 64.6446 123.171 65.474 123.171 66.7354C123.171 67.7155 123.13 68.4129 123.045 68.8283C122.92 69.4494 122.591 70.0752 121.874 70.0752C121.555 70.0752 121.295 69.9324 121.094 69.6459C120.892 69.3601 120.791 68.9044 120.791 68.2794V68.2797ZM125.424 66.6888V65.3226C125.424 64.9701 125.391 64.7152 125.328 64.5582C125.265 64.4012 125.162 64.3235 125.019 64.3235C124.864 64.3235 124.758 64.4212 124.698 64.6161C124.638 64.8118 124.609 65.1851 124.609 65.7358C124.609 66.1678 124.641 66.4681 124.705 66.634C124.768 66.7999 124.881 66.8842 125.043 66.8842C125.178 66.8842 125.305 66.8186 125.424 66.689V66.6888ZM123.882 68.2797H124.609C124.609 69.0259 124.738 69.3983 124.997 69.3983C125.154 69.3983 125.265 69.2927 125.328 69.0827C125.391 68.8723 125.424 68.5307 125.424 68.06V67.1897C125.23 67.3878 125.002 67.4871 124.738 67.4871C123.879 67.4871 123.771 66.383 123.771 65.744C123.771 64.9591 123.983 63.6463 125.006 63.6463C125.443 63.6463 125.762 63.8455 125.962 64.2442C126.162 64.6446 126.261 65.474 126.261 66.7354C126.261 67.7155 126.22 68.4129 126.136 68.8283C126.01 69.4496 125.682 70.0752 124.964 70.0752C124.645 70.0752 124.385 69.9324 124.184 69.6459C123.983 69.3601 123.882 68.9044 123.882 68.2794V68.2797ZM128.142 64.3232C127.993 64.3232 127.891 64.4009 127.836 64.5558C127.781 64.7115 127.754 64.9725 127.754 65.3389C127.754 65.9802 127.883 66.3005 128.142 66.3005C128.279 66.3005 128.379 66.2241 128.439 66.0698C128.565 65.7495 128.558 64.8911 128.451 64.5645C128.399 64.4041 128.296 64.3235 128.142 64.3235L128.142 64.3232ZM128.142 66.978C127.977 66.978 127.867 67.0691 127.813 67.2487C127.759 67.4294 127.732 67.7397 127.732 68.1806C127.732 68.5878 127.757 68.8928 127.805 69.0951C127.853 69.2969 127.966 69.3983 128.142 69.3983C128.31 69.3983 128.421 69.3006 128.475 69.1036C128.528 68.906 128.555 68.6105 128.555 68.2138C128.555 67.7289 128.528 67.4018 128.473 67.2324C128.418 67.0631 128.308 66.9782 128.142 66.9782L128.142 66.978ZM128.641 66.6145C129.143 66.8742 129.393 67.3897 129.393 68.164C129.393 69.4386 128.977 70.0749 128.142 70.0749C127.104 70.0749 126.897 69.033 126.897 68.1967C126.897 67.3841 127.145 66.8573 127.641 66.6142C127.207 66.4196 126.988 65.9428 126.988 65.1853C126.988 64.4323 127.262 63.6461 128.142 63.6461C129.018 63.6461 129.29 64.437 129.29 65.1853C129.29 65.9428 129.074 66.4196 128.641 66.6142V66.6145Z" fill="white"/>
<path fill-rule="evenodd" clip-rule="evenodd" d="M79.165 81.6149C78.5566 80.8063 78.4607 78.0433 78.369 76.8976C78.2815 75.8027 77.8117 72.3198 78.784 71.7949C79.4889 73.1245 80.2591 80.5421 79.165 81.6147V81.6149ZM48.42 78.0747L48.3633 77.6777C51.1204 79.4235 50.7104 79.483 53.1436 77.7639C55.9193 75.8029 64.6216 69.7491 65.7471 67.5495C63.1349 66.1657 63.2327 67.1147 62.1333 63.2765C61.6026 61.4241 60.9188 58.5792 60.7231 56.693L63.8806 66.3598L68.5434 66.5031L61.9238 58.1828L62.3847 57.8164C62.6195 59.4576 67.3378 63.9637 69.0287 64.8922C73.1803 67.1716 76.452 64.4494 80.2968 64.3172L73.4319 66.827L76.4056 85.1194L81.6175 84.8794L77.1845 86.0597L76.9811 97.3476L77.5429 97.37C78.4449 97.7243 92.968 97.0436 92.3869 93.6498C90.5313 90.6071 84.53 95.8394 83.0852 85.5929C82.8172 83.6928 82.3318 84.6216 82.5165 81.8738C82.6077 80.5176 82.6367 79.0745 82.6488 77.7122C82.6749 74.7886 82.0333 72.151 82.0528 69.5218C82.1002 63.1946 82.097 61.4465 77.4825 56.7823C76.0346 55.3187 74.4578 53.9812 72.7942 52.7677C72.2058 52.3384 67.3787 49.4671 67.4253 49.3897L67.7668 49.0125L79.2918 56.3922L79.0823 56.7191C77.9663 49.7295 72.366 47.3247 66.8525 44.995C68.7526 44.8051 71.9705 46.1784 73.5819 47.2323C75.6517 48.5858 77.306 51.1178 78.1576 51.6767C78.5782 49.4629 78.2981 47.9882 76.9977 46.2751C75.3521 44.1079 76.9655 43.3106 77.5479 41.1903L64.3152 37.8652L77.8562 40.0222L78.8412 28.3062C74.2401 28.5032 76.7916 30.7015 71.9813 26.4309C77.1503 29.162 76.8894 29.8339 80.1663 23.975C81.6483 21.3253 86.3595 17.9752 84.696 14.4879C83.145 11.2366 77.6443 9.35885 75.272 12.8559C71.4393 18.5062 77.3526 20.3199 78.7142 22.1961C73.4485 20.6044 71.8517 14.0025 76.0161 11.1399C80.1458 8.30107 86.2544 11.9514 86.2412 17.4113L103.125 14.7123L102.498 11.2287L103.668 13.7098C107.209 13.9058 106.867 11.0203 111.359 14.386C113.685 16.1288 115.64 17.1044 117.519 13.6147C119.945 9.10889 112.613 6.2129 109.859 7.59281C108.102 8.47359 108.235 11.0883 107.765 10.6658L108.254 8.71723L83.8422 10.3152C83.1234 10.4914 83.5882 10.4243 83.471 10.2296C83.8836 9.80319 83.7021 10.0192 83.9121 9.52927C87.1585 7.11265 80.7571 -4.99259 74.0828 2.31575C71.8064 4.80823 71.9397 7.47771 70.2185 9.76606C68.8482 11.5877 65.1149 12.6887 63.0211 13.8908C56.9512 17.3752 58.7296 24.924 61.2121 30.2577C66.687 42.0221 69.6016 33.6196 73.3568 31.8891C73.5112 31.3982 74.1073 30.6275 74.551 30.4413C74.3969 30.8214 74.3215 30.9696 74.0665 31.3049C73.6915 31.7983 73.8206 31.6811 73.3568 31.8891C73.2111 32.9201 69.3837 36.1711 68.3149 36.6987C65.5431 38.0673 63.8522 35.2753 62.1647 33.7929L61.9397 39.1827C66.3629 39.6142 72.6498 42.9224 75.2111 46.5301C63.713 36.6352 51.7805 38.538 68.9763 53.9282C65.0466 52.837 59.3895 44.2599 59.229 44.2193C57.4685 47.1061 61.7752 52.2101 63.7966 54.062C67.068 57.0592 69.6622 57.819 72.5942 59.9696C65.8849 58.8926 63.2719 53.8134 59.2725 50.1909C59.4624 58.1804 60.3144 56.9185 57.7739 64.9356L62.1987 65.6502C58.1921 66.6361 59.078 64.3535 56.0922 66.781C54.4453 68.1198 53.03 68.3339 51.4384 70.16C48.3662 73.6852 48.5873 75.4934 44.1467 78.9357C38.9314 82.978 36.8263 81.4429 41.1188 87.0669C42.1383 88.4025 43.4421 90.4654 44.7356 91.4821C46.0611 92.5238 49.971 92.8662 50.9433 91.3286C50.7446 89.3616 45.9936 90.2782 46.6587 85.6043C47.0806 82.6398 50.4469 81.2098 50.748 79.7167L48.4202 78.0747H48.42ZM77.4578 82.2437C74.9052 80.7149 73.9236 70.028 76.395 69.3611C78.0225 70.4677 76.3155 73.5143 76.2193 75.4289C76.0889 78.0317 77.2638 79.7277 77.4578 82.2437ZM53.8213 75.6934C55.3162 74.717 56.9681 73.3286 58.264 72.0654C59.5686 70.7937 60.8867 68.5812 62.9212 68.7206C62.9194 70.5322 52.4622 78.1447 50.4392 78.3689C50.6163 77.1491 55.5043 72.6944 56.751 72.2611C56.2769 73.4274 54.3931 74.551 53.8213 75.6934ZM81.3363 83.682C81.0335 83.2361 80.7598 74.9287 80.4436 73.1708C79.8778 70.0267 76.2283 67.3001 79.555 65.4816C81.9447 64.1752 81.5231 66.8716 81.3887 68.4701C81.165 71.1306 81.1439 70.936 81.5518 73.5493C81.7927 75.0912 82.3772 82.8874 81.336 83.6823L81.3363 83.682ZM48.1625 76.5407C48.3172 75.7394 51.7133 70.567 52.4748 69.874C53.527 68.9163 54.6179 68.3971 55.7723 67.6059C57.5262 66.4035 57.297 66.1093 59.7101 66.6711C59.3454 68.1885 56.5981 68.1477 53.4943 71.2246C52.3462 72.363 49.387 76.3553 48.1625 76.5407ZM69.7718 37.9372C69.7104 37.3638 71.0664 35.7834 71.6021 35.7981C72.4238 35.8208 73.1497 37.3616 72.6825 38.2827C71.9487 38.4545 70.5162 38.1573 69.7718 37.9372ZM76.8061 38.6088C74.3463 38.4034 76.0825 35.6804 74.686 33.6723C73.8838 32.5187 73.5537 32.8173 74.5397 31.6244C75.1837 30.8456 75.2095 29.8508 76.1837 29.8966C76.764 31.9223 74.3413 31.3487 76.3906 34.2618C77.4831 35.8147 77.8169 36.8707 76.8061 38.6085V38.6088ZM77.7331 33.2614C77.3951 32.6282 77.398 31.6326 77.2688 30.9091C77.151 30.2508 76.9102 29.0137 77.9893 29.1952C79.1895 29.3972 78.4259 32.9606 77.7331 33.2612V33.2614ZM67.7681 32.531C68.0208 31.661 69.4701 30.0209 70.1392 29.354C71.766 27.7315 72.3647 28.8836 74.1463 29.1654C73.639 30.4344 68.7998 35.1228 67.4364 35.195C68.2899 33.844 70.7576 32.4078 71.2164 30.2487C70.3392 30.2946 69.141 32.1109 67.7684 32.531H67.7681ZM66.2659 28.8275C66.3832 26.9313 67.7668 26.295 69.1584 25.4424C70.6627 24.5213 69.2243 21.796 68.7197 20.5757C69.9083 21.7143 70.2174 22.958 70.2332 24.5629C71.5874 24.1926 73.2267 21.3271 73.8361 21.0882C73.3629 22.333 71.6014 24.6066 70.4488 25.4044C68.5118 26.7451 67.5344 26.6026 66.2659 28.8275ZM71.2886 19.039C71.7834 19.0485 74.433 17.7803 73.6172 20.1943C73.291 21.1601 72.273 22.387 71.4583 22.8374C71.0227 22.205 71.273 21.9377 70.5223 21.2905C70.0248 20.862 69.5463 20.7413 69.4659 20.0199C69.37 19.1584 69.8788 18.6318 69.2301 17.8158C68.7278 17.1842 68.3331 17.3878 68.6222 16.3677C69.8704 16.197 70.3684 18.517 71.2886 19.039ZM66.1091 35.1713C62.2843 34.423 59.4076 24.0472 59.5497 20.3542C59.6638 17.3897 61.1215 14.8543 64.2648 14.4352C65.1766 14.3135 69.0066 14.3159 67.5049 16.1828C66.3133 17.6639 65.0253 15.2357 63.3549 16.019C63.209 16.6287 64.946 23.331 61.62 23.2209L60.308 19.388C59.2045 21.0816 60.6477 25.3921 61.819 27.0248C64.3146 30.5042 64.9044 28.6444 64.6079 33.4624L66.1091 35.1713ZM86.9577 13.2038C87.0691 13.9182 87.043 14.1502 86.7079 14.75C86.1379 14.5824 85.8196 13.8257 86.0365 13.2397C86.4699 12.9428 86.4246 13.0361 86.9577 13.2038ZM86.9229 16.3848C87.188 15.8067 87.9864 15.4253 88.4412 14.8672C89.7785 13.2262 89.2633 14.5532 90.7548 14.0875C91.568 13.8336 93.1424 10.9914 94.7016 12.5238C95.9395 13.7406 93.91 16.5481 97.8621 14.6112C99.2647 13.9237 100.68 12.572 102.198 13.0495C102.418 15.026 96.4505 15.4332 95.0702 15.3742C91.5324 15.2228 87.6178 16.7699 86.9226 16.3846L86.9229 16.3848ZM83.4304 11.1681C84.5996 10.0842 86.0639 10.7311 87.6852 10.8267C89.5587 10.9374 91.0304 10.6806 92.8057 10.6634C92.3087 11.2239 90.3355 11.6501 89.5034 11.9922C87.8899 12.6555 87.4225 11.5584 85.7234 11.4273L86.1648 12.2588C85.5487 12.2717 83.9002 11.545 83.4301 11.1681H83.4304ZM78.1684 9.86799C78.0823 8.74383 78.6528 8.36586 79.8206 8.52364C80.585 8.62715 81.2891 9.05437 81.5534 9.75157C80.4638 9.41838 80.6833 9.12522 79.3173 9.11442L78.1684 9.86773V9.86799ZM73.3776 8.69115C72.7434 7.44426 73.2554 5.12377 74.8981 4.9876C75.6615 5.65582 75.7508 6.13467 75.8533 7.1353C76.2217 6.92485 76.1099 7.26357 76.2994 6.65197C76.3866 7.89492 75.3221 9.43866 74.7002 10.4767C74.2182 11.2806 73.9078 11.5887 72.9202 11.1834C70.8066 10.3165 72.258 10.9274 70.8651 10.513C70.8259 9.78607 71.1987 9.15709 71.7761 8.80942C72.8778 8.92557 73.5742 10.6297 74.7313 9.19107C75.4148 8.34137 75.6182 6.66567 74.902 5.76724C73.4891 5.77804 73.3779 7.60045 73.3779 8.69142L73.3776 8.69115Z" fill="white"/>
<path d="M35.2057 102.848L37.0125 103.186L35.6792 110.289L34.2781 110.027L32.4412 105.984L31.7709 109.556L29.9537 109.215L31.2871 102.112L32.6981 102.377L34.535 106.419L35.2054 102.847L35.2057 102.848ZM43.0834 110.424C42.255 111.04 41.3161 111.273 40.2663 111.124C39.2162 110.974 38.3796 110.488 37.7559 109.666C37.1322 108.844 36.895 107.908 37.0447 106.859C37.1941 105.81 37.6829 104.977 38.5113 104.361C39.3395 103.746 40.2787 103.513 41.3287 103.662C42.3786 103.811 43.2152 104.297 43.8389 105.119C44.4626 105.942 44.6998 106.877 44.5504 107.926C44.401 108.976 43.9122 109.808 43.0837 110.424H43.0834ZM39.2181 108.592C39.5343 109.008 39.9685 109.256 40.5208 109.335C41.0731 109.413 41.5591 109.297 41.9791 108.985C42.3991 108.672 42.6494 108.233 42.7298 107.668C42.8104 107.102 42.6927 106.611 42.3764 106.194C42.0602 105.777 41.6262 105.53 41.0739 105.451C40.5216 105.372 40.0355 105.489 39.6157 105.801C39.1957 106.114 38.9453 106.552 38.865 107.118C38.7843 107.683 38.9021 108.175 39.2183 108.592H39.2181ZM52.0977 108.491C52.6706 108.9 52.9262 109.464 52.8642 110.184C52.8092 110.822 52.5457 111.314 52.0735 111.66C51.6013 112.006 50.9981 112.148 50.264 112.085L47.2284 111.823L47.8492 104.623L50.6893 104.867C51.4094 104.929 51.9699 105.162 52.3707 105.566C52.7712 105.971 52.9443 106.488 52.8898 107.119C52.8376 107.722 52.5736 108.18 52.0977 108.491V108.491ZM50.4958 106.509L49.5491 106.427L49.4516 107.559L50.3983 107.64C50.563 107.654 50.7061 107.616 50.8281 107.527C50.9499 107.437 51.0184 107.303 51.0337 107.125C51.0484 106.954 51.0055 106.812 50.9045 106.699C50.8036 106.587 50.6674 106.524 50.4958 106.509ZM50.3543 110.434C50.5396 110.45 50.6953 110.407 50.8218 110.304C50.948 110.201 51.0189 110.06 51.0345 109.882C51.0503 109.696 51.0047 109.544 50.8977 109.424C50.7904 109.305 50.6445 109.237 50.4592 109.221L49.3169 109.123L49.212 110.336L50.3543 110.435V110.434ZM59.6614 111.728C58.8956 112.42 57.9828 112.741 56.9238 112.693C55.8645 112.644 54.9852 112.24 54.2861 111.481C53.5868 110.722 53.2616 109.813 53.3103 108.754C53.3591 107.695 53.7662 106.82 54.5322 106.129C55.2982 105.437 56.2108 105.115 57.27 105.164C58.3293 105.213 59.2087 105.617 59.9077 106.376C60.6071 107.135 60.9322 108.044 60.8838 109.102C60.835 110.161 60.4276 111.036 59.6616 111.728H59.6614ZM55.6389 110.272C55.9936 110.657 56.4495 110.862 57.0065 110.888C57.5636 110.913 58.0363 110.751 58.4247 110.4C58.8131 110.049 59.0203 109.588 59.0466 109.018C59.073 108.447 58.9088 107.969 58.5544 107.584C58.2 107.199 57.7441 106.994 57.187 106.969C56.63 106.943 56.157 107.105 55.7686 107.456C55.3804 107.807 55.1731 108.268 55.1467 108.838C55.1204 109.409 55.2845 109.887 55.6389 110.272V110.272ZM67.058 112.834L64.9926 112.794L63.8946 110.846L62.7207 112.749L60.6453 112.708L62.8914 109.068L60.8703 105.484L62.9475 105.525L63.9639 107.331L65.0524 105.566L67.1281 105.607L64.9652 109.114L67.058 112.834ZM73.877 105.489L75.7149 105.453L75.8572 112.679L74.4322 112.707L71.8098 109.124L71.8814 112.757L70.0329 112.793L69.8907 105.568L71.326 105.54L73.9484 109.123L73.8767 105.489H73.877ZM83.1387 111.306C82.4496 112.074 81.5758 112.49 80.5173 112.553C79.4588 112.615 78.5418 112.306 77.7671 111.625C76.9919 110.943 76.5732 110.073 76.5102 109.015C76.4475 107.957 76.7605 107.044 77.4496 106.276C78.1384 105.507 79.0122 105.092 80.0709 105.029C81.1294 104.966 82.0462 105.276 82.8211 105.957C83.5961 106.639 84.0151 107.508 84.0778 108.567C84.1405 109.625 83.8275 110.538 83.1384 111.306H83.1387ZM78.9855 110.28C79.3784 110.626 79.8535 110.782 80.4103 110.749C80.9671 110.716 81.4201 110.505 81.7695 110.115C82.1189 109.725 82.2767 109.246 82.2427 108.675C82.209 108.105 81.9956 107.647 81.6024 107.301C81.2095 106.956 80.7347 106.799 80.1779 106.833C79.6211 106.866 79.1679 107.077 78.8185 107.467C78.4691 107.856 78.3112 108.336 78.3452 108.907C78.379 109.477 78.5924 109.935 78.9855 110.28ZM89.1142 109.868L91.5874 109.587L91.7895 111.361L87.4794 111.852L86.662 104.671L88.4989 104.462L89.1142 109.868ZM91.5376 104.102L93.3714 103.868L94.2884 111.036L92.4546 111.271L91.5376 104.102ZM98.9577 104.82L96.3964 105.222L96.579 106.385L99.0892 105.991L99.3664 107.755L96.8562 108.149L97.2407 110.597L95.4143 110.884L94.2926 103.744L98.6802 103.055L98.9574 104.82H98.9577ZM102.193 107.986L104.945 107.47L105.264 109.175L100.696 110.032L99.363 102.929L103.88 102.081L104.198 103.776L101.498 104.282L101.683 105.267L104.129 104.808L104.444 106.482L101.997 106.941L102.193 107.986Z" fill="white"/>
</svg>
